<svg xmlns="http://www.w3.org/2000/svg" viewBox="0 0 800 800" width="800" height="800" role="img"><title>Ateliers Pehouet · Éclats · lumiere-eclats-3</title><defs><filter id="glow" x="-50%" y="-50%" width="200%" height="200%"><feGaussianBlur in="SourceAlpha" stdDeviation="11.2" result="b"/><feFlood flood-color="#e8433b" result="c"/><feComposite in="c" in2="b" operator="in" result="g"/><feMerge><feMergeNode in="g"/><feMergeNode in="g"/><feMergeNode in="SourceGraphic"/></feMerge></filter><filter id="soft" x="-50%" y="-50%" width="200%" height="200%"><feGaussianBlur in="SourceAlpha" stdDeviation="3.2" result="b"/><feFlood flood-color="#fafcfd" result="c"/><feComposite in="c" in2="b" operator="in" result="g"/><feMerge><feMergeNode in="g"/><feMergeNode in="g"/><feMergeNode in="SourceGraphic"/></feMerge></filter><linearGradient id="tg" x1="0" y1="0" x2="1" y2="0"><stop offset="0%" stop-color="#f8d449"/><stop offset="25%" stop-color="#e3a94e"/><stop offset="50%" stop-color="#c96338"/><stop offset="75%" stop-color="#e8433b"/><stop offset="100%" stop-color="#b32c2b"/></linearGradient></defs><rect x="0" y="0" width="800" height="800" fill="#000000"/><polygon points="409.45,409.76 671.53,19.19 687.6,30.47" fill="#f8d449" opacity="0.48"/><polygon points="371.2,376.72 385.69,-61.7 425.6,-58.56" fill="#b32c2b" opacity="0.65"/><polygon points="304.07,413.82 122.44,236.97 133.89,225.93" fill="#fafcfd" opacity="0.93"/><polygon points="415.56,540.67 705.2,881.04 683.26,898.55" fill="#fafcfd" opacity="0.6"/><polygon points="346.21,399.53 256.72,52.61 277.07,47.99" fill="#f8d449" opacity="0.66"/><polygon points="420.09,483.65 868.09,539.51 865.31,558.45" fill="#fafcfd" opacity="0.46"/><polygon points="272.16,503.3 38.07,588.89 30.28,563.45" fill="#f8d449" opacity="0.6"/><polygon points="433.8,423.5 608.03,281.3 621.23,299.22" fill="#4f8edc" opacity="0.55"/><polygon points="456.27,424.53 588.92,340.66 598.4,357.97" fill="#4f8edc" opacity="0.78"/><polygon points="379.53,536.13 447.86,770.54 436.22,773.62" fill="#fafcfd" opacity="0.5"/><polygon points="360.26,550.86 356.01,789.71 344.48,789.23" fill="#fafcfd" opacity="0.68"/><polygon points="283.55,412.55 -17.1,205.78 11.66,169.19" fill="#fafcfd" opacity="0.64"/><polygon points="447.31,445.45 704.59,340.7 712.83,363.8" fill="#4f8edc" opacity="0.92"/><polygon points="253.35,466.3 89.15,464.47 91.06,441.27" fill="#f8d449" opacity="0.69"/><polygon points="286.82,419.24 70.18,281.86 90.5,254.12" fill="#4f8edc" opacity="0.84"/><polygon points="352.56,394.21 319.54,211.88 336.48,209.61" fill="#e3a94e" opacity="0.72"/><polygon points="363.18,543.24 370.42,1072.19 352.17,1072.13" fill="#f8d449" opacity="0.63"/><polygon points="364.86,399.47 351.62,-14.69 393.74,-13.89" fill="#b32c2b" opacity="0.8"/><polygon points="437.51,547.91 570.06,660.91 553.24,678.08" fill="#4f8edc" opacity="0.5"/><polygon points="357.08,358.3 320.03,15.8 356.9,13.8" fill="#c96338" opacity="0.79"/><polygon points="274.68,409.12 91.34,283 101.6,269.26" fill="#fafcfd" opacity="0.56"/><line x1="105.21" y1="913.04" x2="827.88" y2="681.57" stroke="#fafcfd" stroke-width="3.63" stroke-linecap="round" opacity="0.83" pathLength="1"/><line x1="-158.81" y1="552.04" x2="832.09" y2="232.53" stroke="#fafcfd" stroke-width="3.34" stroke-linecap="round" opacity="0.9" pathLength="1"/><line x1="12.81" y1="517.64" x2="173.7" y2="177.49" stroke="#fafcfd" stroke-width="2.75" stroke-linecap="round" opacity="0.72" pathLength="1"/><line x1="189.52" y1="898.06" x2="760.74" y2="701.34" stroke="#e8433b" stroke-width="2.49" stroke-linecap="round" opacity="0.91" pathLength="1"/><line x1="-28.04" y1="854.88" x2="893.69" y2="602.28" stroke="#e3a94e" stroke-width="4.21" stroke-linecap="round" opacity="0.59" pathLength="1"/><line x1="56.68" y1="471.6" x2="602.07" y2="282.6" stroke="#fafcfd" stroke-width="2.64" stroke-linecap="round" opacity="0.44" pathLength="1" filter="url(#soft)"/><line x1="143.5" y1="764.85" x2="699.36" y2="614.36" stroke="#fafcfd" stroke-width="2.19" stroke-linecap="round" opacity="0.95" pathLength="1"/><line x1="-138.22" y1="322.95" x2="660.01" y2="43.02" stroke="#fafcfd" stroke-width="4.37" stroke-linecap="round" opacity="0.56" pathLength="1"/><line x1="-225.21" y1="664.07" x2="904.52" y2="176.48" stroke="#fafcfd" stroke-width="2.31" stroke-linecap="round" opacity="0.49" pathLength="1"/><line x1="539.5" y1="775.78" x2="704.25" y2="403.97" stroke="#e8433b" stroke-width="2.69" stroke-linecap="round" opacity="0.66" pathLength="1"/><line x1="50.48" y1="784.81" x2="798.77" y2="539.97" stroke="#e3a94e" stroke-width="1.5" stroke-linecap="round" opacity="0.79" pathLength="1"/><line x1="-203.18" y1="524.39" x2="771.92" y2="79.66" stroke="#e8433b" stroke-width="3.01" stroke-linecap="round" opacity="0.7" pathLength="1"/><line x1="-174.88" y1="645.85" x2="906.35" y2="320.19" stroke="#fafcfd" stroke-width="2.02" stroke-linecap="round" opacity="0.77" pathLength="1"/><line x1="-100.46" y1="980.24" x2="1048" y2="513.43" stroke="#e3a94e" stroke-width="3.52" stroke-linecap="round" opacity="0.71" pathLength="1"/><line x1="65.35" y1="540.33" x2="652.76" y2="378.63" stroke="#e3a94e" stroke-width="2.27" stroke-linecap="round" opacity="0.4" pathLength="1"/><line x1="0.1" y1="908.55" x2="927.1" y2="519.41" stroke="#fafcfd" stroke-width="4.27" stroke-linecap="round" opacity="0.91" pathLength="1"/><line x1="-225.96" y1="415.87" x2="814.15" y2="90.96" stroke="#fafcfd" stroke-width="3.91" stroke-linecap="round" opacity="0.52" pathLength="1"/><polygon points="378.57,410.14 423.58,558.06 272.97,523.08" fill="url(#tg)" filter="url(#glow)"/><polygon points="378.57,410.14 423.58,558.06 272.97,523.08" fill="none" stroke="#fafcfd" stroke-width="3.2" stroke-linejoin="round"/></svg>
