<svg xmlns="http://www.w3.org/2000/svg" viewBox="0 0 800 800" width="800" height="800" role="img"><title>Ateliers Pehouet · Mondrian · communaute-mondrian-2</title><defs><linearGradient id="tg" x1="0" y1="0" x2="1" y2="1"><stop offset="0%" stop-color="#f8d449"/><stop offset="25%" stop-color="#e3a94e"/><stop offset="50%" stop-color="#c96338"/><stop offset="75%" stop-color="#e8433b"/><stop offset="100%" stop-color="#b32c2b"/></linearGradient></defs><rect x="0" y="0" width="800" height="800" fill="#000000"/><rect x="0" y="0" width="53.47" height="71.75" fill="#08080b" stroke="#fafcfd" stroke-width="7.69"/><rect x="53.47" y="0" width="53.1" height="71.75" fill="#1d1d23" stroke="#fafcfd" stroke-width="7.69"/><rect x="106.58" y="0" width="269.39" height="71.75" fill="#173d6b" stroke="#fafcfd" stroke-width="7.69"/><g><polygon points="375.96,0 653.48,71.75 375.96,71.75" fill="#000000"/><polygon points="375.96,0 653.48,0 653.48,71.75" fill="#fafcfd"/></g><rect x="375.96" y="0" width="277.52" height="71.75" fill="none" stroke="#fafcfd" stroke-width="7.69"/><rect x="653.48" y="0" width="62.19" height="71.75" fill="#6e1a1a" stroke="#fafcfd" stroke-width="7.69"/><rect x="715.67" y="0" width="84.33" height="71.75" fill="#1d1d23" stroke="#fafcfd" stroke-width="7.69"/><rect x="0" y="71.75" width="198.67" height="676.66" fill="#f8d449" stroke="#fafcfd" stroke-width="7.69"/><rect x="198.67" y="71.75" width="506.66" height="676.66" fill="#f8d449" stroke="#fafcfd" stroke-width="7.69"/><rect x="0" y="748.41" width="705.33" height="51.59" fill="#000000" stroke="#fafcfd" stroke-width="7.69"/><rect x="705.33" y="71.75" width="94.67" height="728.25" fill="url(#tg)" stroke="#fafcfd" stroke-width="7.69"/><rect x="0" y="0" width="800" height="800" fill="none" stroke="#fafcfd" stroke-width="15.38"/></svg>
