<svg xmlns="http://www.w3.org/2000/svg" viewBox="0 0 800 800" width="800" height="800" role="img"><title>Ateliers Pehouet · Vitrail · communaute-vitrail-2</title><defs><radialGradient id="light" cx="46%" cy="30%" r="70%"><stop offset="0%" stop-color="#fafcfd" stop-opacity="0.95"/><stop offset="35%" stop-color="#f8d449" stop-opacity="0.55"/><stop offset="100%" stop-color="#f8d449" stop-opacity="0"/></radialGradient><linearGradient id="ray" x1="0" y1="0" x2="0" y2="1"><stop offset="0%" stop-color="#f8d449" stop-opacity="0.32"/><stop offset="100%" stop-color="#f8d449" stop-opacity="0"/></linearGradient><clipPath id="win"><path d="M180.64 584.66 L180.64 305.30 A372.92 372.92 0 0 1 400.00 64.00 A372.92 372.92 0 0 1 619.36 305.30 L619.36 584.66 Z"/></clipPath></defs><rect x="0" y="0" width="800" height="800" fill="#000000"/><polygon points="171.73,584.66 224.38,584.66 409.44,800 194.67,800" fill="url(#ray)"/><polygon points="241.5,584.66 294.15,584.66 457.12,800 286.54,800" fill="url(#ray)"/><polygon points="336.2,584.66 388.85,584.66 560.9,800 372.15,800" fill="url(#ray)"/><polygon points="432.11,584.66 484.76,584.66 645.71,800 479.15,800" fill="url(#ray)"/><polygon points="502.41,584.66 555.05,584.66 724.38,800 541.08,800" fill="url(#ray)"/><ellipse cx="417.05" cy="720" rx="96.25" ry="20" fill="#265fa5" opacity="0.25"/><ellipse cx="270.64" cy="720" rx="116.3" ry="20" fill="#b32c2b" opacity="0.25"/><ellipse cx="522.28" cy="720" rx="93.85" ry="20" fill="#f8d449" opacity="0.25"/><g clip-path="url(#win)"><rect x="180.64" y="64" width="438.73" height="520.66" fill="url(#light)"/><polygon points="180.64,64 274.82,64 259.81,112.27" fill="#e8433b" fill-opacity="0.82" stroke="#08080b" stroke-width="8.8" stroke-linejoin="round"/><polygon points="180.64,64 259.81,112.27 180.64,137.73" fill="#b32c2b" fill-opacity="0.74" stroke="#08080b" stroke-width="8.8" stroke-linejoin="round"/><polygon points="274.82,64 336.16,64 320.67,125.1" fill="#c96338" fill-opacity="0.82" stroke="#08080b" stroke-width="8.8" stroke-linejoin="round"/><polygon points="274.82,64 320.67,125.1 259.81,112.27" fill="#c96338" fill-opacity="0.88" stroke="#08080b" stroke-width="8.8" stroke-linejoin="round"/><polygon points="336.16,64 410.51,64 418.26,105.42" fill="#c96338" fill-opacity="0.88" stroke="#08080b" stroke-width="8.8" stroke-linejoin="round"/><polygon points="336.16,64 418.26,105.42 320.67,125.1" fill="#b32c2b" fill-opacity="0.81" stroke="#08080b" stroke-width="8.8" stroke-linejoin="round"/><polygon points="410.51,64 483.57,64 453.03,111.06" fill="#b32c2b" fill-opacity="0.73" stroke="#08080b" stroke-width="8.8" stroke-linejoin="round"/><polygon points="410.51,64 453.03,111.06 418.26,105.42" fill="#c96338" fill-opacity="0.77" stroke="#08080b" stroke-width="8.8" stroke-linejoin="round"/><polygon points="483.57,64 532.48,64 453.03,111.06" fill="#fafcfd" fill-opacity="0.8" stroke="#08080b" stroke-width="8.8" stroke-linejoin="round"/><polygon points="532.48,64 567.9,126.28 453.03,111.06" fill="#e8433b" fill-opacity="0.82" stroke="#08080b" stroke-width="8.8" stroke-linejoin="round"/><polygon points="532.48,64 619.36,64 619.36,105.58" fill="#265fa5" fill-opacity="0.74" stroke="#08080b" stroke-width="8.8" stroke-linejoin="round"/><polygon points="532.48,64 619.36,105.58 567.9,126.28" fill="#e3a94e" fill-opacity="0.82" stroke="#08080b" stroke-width="8.8" stroke-linejoin="round"/><polygon points="180.64,137.73 259.81,112.27 263.06,175.19" fill="#b32c2b" fill-opacity="0.83" stroke="#08080b" stroke-width="8.8" stroke-linejoin="round"/><polygon points="180.64,137.73 263.06,175.19 180.64,174.59" fill="#b32c2b" fill-opacity="0.88" stroke="#08080b" stroke-width="8.8" stroke-linejoin="round"/><polygon points="259.81,112.27 320.67,125.1 332.07,164.89" fill="#c96338" fill-opacity="0.78" stroke="#08080b" stroke-width="8.8" stroke-linejoin="round"/><polygon points="259.81,112.27 332.07,164.89 263.06,175.19" fill="#b32c2b" fill-opacity="0.78" stroke="#08080b" stroke-width="8.8" stroke-linejoin="round"/><polygon points="320.67,125.1 418.26,105.42 410.13,178.22" fill="#4f8edc" fill-opacity="0.86" stroke="#08080b" stroke-width="8.8" stroke-linejoin="round"/><polygon points="320.67,125.1 410.13,178.22 332.07,164.89" fill="#265fa5" fill-opacity="0.78" stroke="#08080b" stroke-width="8.8" stroke-linejoin="round"/><polygon points="418.26,105.42 453.03,111.06 453.9,185.1" fill="#265fa5" fill-opacity="0.77" stroke="#08080b" stroke-width="8.8" stroke-linejoin="round"/><polygon points="418.26,105.42 453.9,185.1 410.13,178.22" fill="#265fa5" fill-opacity="0.89" stroke="#08080b" stroke-width="8.8" stroke-linejoin="round"/><polygon points="453.03,111.06 567.9,126.28 453.9,185.1" fill="#265fa5" fill-opacity="0.8" stroke="#08080b" stroke-width="8.8" stroke-linejoin="round"/><polygon points="567.9,126.28 543.68,184.48 453.9,185.1" fill="#265fa5" fill-opacity="0.86" stroke="#08080b" stroke-width="8.8" stroke-linejoin="round"/><polygon points="567.9,126.28 619.36,105.58 619.36,177.22" fill="#4f8edc" fill-opacity="0.87" stroke="#08080b" stroke-width="8.8" stroke-linejoin="round"/><polygon points="567.9,126.28 619.36,177.22 543.68,184.48" fill="#b32c2b" fill-opacity="0.87" stroke="#08080b" stroke-width="8.8" stroke-linejoin="round"/><polygon points="180.64,174.59 263.06,175.19 270.26,241.27" fill="#b32c2b" fill-opacity="0.91" stroke="#08080b" stroke-width="8.8" stroke-linejoin="round"/><polygon points="180.64,174.59 270.26,241.27 180.64,224.24" fill="#265fa5" fill-opacity="0.83" stroke="#08080b" stroke-width="8.8" stroke-linejoin="round"/><polygon points="263.06,175.19 332.07,164.89 270.26,241.27" fill="#b32c2b" fill-opacity="0.82" stroke="#08080b" stroke-width="8.8" stroke-linejoin="round"/><polygon points="332.07,164.89 307.65,246.86 270.26,241.27" fill="#e3a94e" fill-opacity="0.86" stroke="#08080b" stroke-width="8.8" stroke-linejoin="round"/><polygon points="332.07,164.89 410.13,178.22 307.65,246.86" fill="#f8d449" fill-opacity="0.8" stroke="#08080b" stroke-width="8.8" stroke-linejoin="round"/><polygon points="410.13,178.22 389.9,252.19 307.65,246.86" fill="#265fa5" fill-opacity="0.87" stroke="#08080b" stroke-width="8.8" stroke-linejoin="round"/><polygon points="410.13,178.22 453.9,185.1 389.9,252.19" fill="#265fa5" fill-opacity="0.73" stroke="#08080b" stroke-width="8.8" stroke-linejoin="round"/><polygon points="453.9,185.1 469.71,225.22 389.9,252.19" fill="#c96338" fill-opacity="0.81" stroke="#08080b" stroke-width="8.8" stroke-linejoin="round"/><polygon points="453.9,185.1 543.68,184.48 469.71,225.22" fill="#e8433b" fill-opacity="0.73" stroke="#08080b" stroke-width="8.8" stroke-linejoin="round"/><polygon points="543.68,184.48 536.76,251.47 469.71,225.22" fill="#4f8edc" fill-opacity="0.85" stroke="#08080b" stroke-width="8.8" stroke-linejoin="round"/><polygon points="543.68,184.48 619.36,177.22 619.36,251.77" fill="#265fa5" fill-opacity="0.74" stroke="#08080b" stroke-width="8.8" stroke-linejoin="round"/><polygon points="543.68,184.48 619.36,251.77 536.76,251.47" fill="#b32c2b" fill-opacity="0.78" stroke="#08080b" stroke-width="8.8" stroke-linejoin="round"/><polygon points="180.64,224.24 270.26,241.27 180.64,295.76" fill="#f8d449" fill-opacity="0.81" stroke="#08080b" stroke-width="8.8" stroke-linejoin="round"/><polygon points="270.26,241.27 256.91,284.6 180.64,295.76" fill="#e8433b" fill-opacity="0.85" stroke="#08080b" stroke-width="8.8" stroke-linejoin="round"/><polygon points="270.26,241.27 307.65,246.86 334.04,288.13" fill="#f8d449" fill-opacity="0.86" stroke="#08080b" stroke-width="8.8" stroke-linejoin="round"/><polygon points="270.26,241.27 334.04,288.13 256.91,284.6" fill="#265fa5" fill-opacity="0.91" stroke="#08080b" stroke-width="8.8" stroke-linejoin="round"/><polygon points="307.65,246.86 389.9,252.19 334.04,288.13" fill="#e8433b" fill-opacity="0.9" stroke="#08080b" stroke-width="8.8" stroke-linejoin="round"/><polygon points="389.9,252.19 420.95,309.71 334.04,288.13" fill="#f8d449" fill-opacity="0.91" stroke="#08080b" stroke-width="8.8" stroke-linejoin="round"/><polygon points="389.9,252.19 469.71,225.22 420.95,309.71" fill="#f8d449" fill-opacity="0.85" stroke="#08080b" stroke-width="8.8" stroke-linejoin="round"/><polygon points="469.71,225.22 462.46,311.49 420.95,309.71" fill="#265fa5" fill-opacity="0.81" stroke="#08080b" stroke-width="8.8" stroke-linejoin="round"/><polygon points="469.71,225.22 536.76,251.47 557.97,298.93" fill="#fafcfd" fill-opacity="0.82" stroke="#08080b" stroke-width="8.8" stroke-linejoin="round"/><polygon points="469.71,225.22 557.97,298.93 462.46,311.49" fill="#b32c2b" fill-opacity="0.92" stroke="#08080b" stroke-width="8.8" stroke-linejoin="round"/><polygon points="536.76,251.47 619.36,251.77 557.97,298.93" fill="#b32c2b" fill-opacity="0.81" stroke="#08080b" stroke-width="8.8" stroke-linejoin="round"/><polygon points="619.36,251.77 619.36,286.63 557.97,298.93" fill="#f8d449" fill-opacity="0.75" stroke="#08080b" stroke-width="8.8" stroke-linejoin="round"/><polygon points="180.64,295.76 256.91,284.6 180.64,350.02" fill="#f8d449" fill-opacity="0.83" stroke="#08080b" stroke-width="8.8" stroke-linejoin="round"/><polygon points="256.91,284.6 270.92,366.66 180.64,350.02" fill="#265fa5" fill-opacity="0.92" stroke="#08080b" stroke-width="8.8" stroke-linejoin="round"/><polygon points="256.91,284.6 334.04,288.13 332.13,365.07" fill="#b32c2b" fill-opacity="0.77" stroke="#08080b" stroke-width="8.8" stroke-linejoin="round"/><polygon points="256.91,284.6 332.13,365.07 270.92,366.66" fill="#f8d449" fill-opacity="0.73" stroke="#08080b" stroke-width="8.8" stroke-linejoin="round"/><polygon points="334.04,288.13 420.95,309.71 332.13,365.07" fill="#265fa5" fill-opacity="0.74" stroke="#08080b" stroke-width="8.8" stroke-linejoin="round"/><polygon points="420.95,309.71 401.26,369.39 332.13,365.07" fill="#265fa5" fill-opacity="0.87" stroke="#08080b" stroke-width="8.8" stroke-linejoin="round"/><polygon points="420.95,309.71 462.46,311.49 451.43,348.97" fill="#c96338" fill-opacity="0.83" stroke="#08080b" stroke-width="8.8" stroke-linejoin="round"/><polygon points="420.95,309.71 451.43,348.97 401.26,369.39" fill="#265fa5" fill-opacity="0.73" stroke="#08080b" stroke-width="8.8" stroke-linejoin="round"/><polygon points="462.46,311.49 557.97,298.93 526.9,349.59" fill="#c96338" fill-opacity="0.82" stroke="#08080b" stroke-width="8.8" stroke-linejoin="round"/><polygon points="462.46,311.49 526.9,349.59 451.43,348.97" fill="#265fa5" fill-opacity="0.77" stroke="#08080b" stroke-width="8.8" stroke-linejoin="round"/><polygon points="557.97,298.93 619.36,286.63 526.9,349.59" fill="#b32c2b" fill-opacity="0.79" stroke="#08080b" stroke-width="8.8" stroke-linejoin="round"/><polygon points="619.36,286.63 619.36,369.3 526.9,349.59" fill="#f8d449" fill-opacity="0.73" stroke="#08080b" stroke-width="8.8" stroke-linejoin="round"/><polygon points="180.64,350.02 270.92,366.66 237.1,406.13" fill="#b32c2b" fill-opacity="0.75" stroke="#08080b" stroke-width="8.8" stroke-linejoin="round"/><polygon points="180.64,350.02 237.1,406.13 180.64,421.15" fill="#265fa5" fill-opacity="0.78" stroke="#08080b" stroke-width="8.8" stroke-linejoin="round"/><polygon points="270.92,366.66 332.13,365.07 237.1,406.13" fill="#b32c2b" fill-opacity="0.85" stroke="#08080b" stroke-width="8.8" stroke-linejoin="round"/><polygon points="332.13,365.07 333.12,394.18 237.1,406.13" fill="#f8d449" fill-opacity="0.74" stroke="#08080b" stroke-width="8.8" stroke-linejoin="round"/><polygon points="332.13,365.07 401.26,369.39 333.12,394.18" fill="#265fa5" fill-opacity="0.88" stroke="#08080b" stroke-width="8.8" stroke-linejoin="round"/><polygon points="401.26,369.39 406.99,396.24 333.12,394.18" fill="#265fa5" fill-opacity="0.84" stroke="#08080b" stroke-width="8.8" stroke-linejoin="round"/><polygon points="401.26,369.39 451.43,348.97 479.24,415.71" fill="#f8d449" fill-opacity="0.89" stroke="#08080b" stroke-width="8.8" stroke-linejoin="round"/><polygon points="401.26,369.39 479.24,415.71 406.99,396.24" fill="#b32c2b" fill-opacity="0.77" stroke="#08080b" stroke-width="8.8" stroke-linejoin="round"/><polygon points="451.43,348.97 526.9,349.59 479.24,415.71" fill="#f8d449" fill-opacity="0.91" stroke="#08080b" stroke-width="8.8" stroke-linejoin="round"/><polygon points="526.9,349.59 550.04,414.99 479.24,415.71" fill="#e8433b" fill-opacity="0.91" stroke="#08080b" stroke-width="8.8" stroke-linejoin="round"/><polygon points="526.9,349.59 619.36,369.3 619.36,415.84" fill="#b32c2b" fill-opacity="0.91" stroke="#08080b" stroke-width="8.8" stroke-linejoin="round"/><polygon points="526.9,349.59 619.36,415.84 550.04,414.99" fill="#e3a94e" fill-opacity="0.76" stroke="#08080b" stroke-width="8.8" stroke-linejoin="round"/><polygon points="180.64,421.15 237.1,406.13 237.84,459.58" fill="#4f8edc" fill-opacity="0.82" stroke="#08080b" stroke-width="8.8" stroke-linejoin="round"/><polygon points="180.64,421.15 237.84,459.58 180.64,457.37" fill="#265fa5" fill-opacity="0.76" stroke="#08080b" stroke-width="8.8" stroke-linejoin="round"/><polygon points="237.1,406.13 333.12,394.18 237.84,459.58" fill="#4f8edc" fill-opacity="0.86" stroke="#08080b" stroke-width="8.8" stroke-linejoin="round"/><polygon points="333.12,394.18 310.16,467.39 237.84,459.58" fill="#f8d449" fill-opacity="0.89" stroke="#08080b" stroke-width="8.8" stroke-linejoin="round"/><polygon points="333.12,394.18 406.99,396.24 412.93,482.52" fill="#265fa5" fill-opacity="0.89" stroke="#08080b" stroke-width="8.8" stroke-linejoin="round"/><polygon points="333.12,394.18 412.93,482.52 310.16,467.39" fill="#e3a94e" fill-opacity="0.81" stroke="#08080b" stroke-width="8.8" stroke-linejoin="round"/><polygon points="406.99,396.24 479.24,415.71 454.19,477.17" fill="#e3a94e" fill-opacity="0.87" stroke="#08080b" stroke-width="8.8" stroke-linejoin="round"/><polygon points="406.99,396.24 454.19,477.17 412.93,482.52" fill="#e8433b" fill-opacity="0.77" stroke="#08080b" stroke-width="8.8" stroke-linejoin="round"/><polygon points="479.24,415.71 550.04,414.99 454.19,477.17" fill="#f8d449" fill-opacity="0.74" stroke="#08080b" stroke-width="8.8" stroke-linejoin="round"/><polygon points="550.04,414.99 543.52,485.79 454.19,477.17" fill="#265fa5" fill-opacity="0.9" stroke="#08080b" stroke-width="8.8" stroke-linejoin="round"/><polygon points="550.04,414.99 619.36,415.84 543.52,485.79" fill="#4f8edc" fill-opacity="0.88" stroke="#08080b" stroke-width="8.8" stroke-linejoin="round"/><polygon points="619.36,415.84 619.36,463 543.52,485.79" fill="#265fa5" fill-opacity="0.82" stroke="#08080b" stroke-width="8.8" stroke-linejoin="round"/><polygon points="180.64,457.37 237.84,459.58 254.27,541.41" fill="#e8433b" fill-opacity="0.88" stroke="#08080b" stroke-width="8.8" stroke-linejoin="round"/><polygon points="180.64,457.37 254.27,541.41 180.64,522.6" fill="#c96338" fill-opacity="0.79" stroke="#08080b" stroke-width="8.8" stroke-linejoin="round"/><polygon points="237.84,459.58 310.16,467.39 306.99,543.81" fill="#b32c2b" fill-opacity="0.76" stroke="#08080b" stroke-width="8.8" stroke-linejoin="round"/><polygon points="237.84,459.58 306.99,543.81 254.27,541.41" fill="#e3a94e" fill-opacity="0.81" stroke="#08080b" stroke-width="8.8" stroke-linejoin="round"/><polygon points="310.16,467.39 412.93,482.52 412.25,533.25" fill="#4f8edc" fill-opacity="0.72" stroke="#08080b" stroke-width="8.8" stroke-linejoin="round"/><polygon points="310.16,467.39 412.25,533.25 306.99,543.81" fill="#f8d449" fill-opacity="0.74" stroke="#08080b" stroke-width="8.8" stroke-linejoin="round"/><polygon points="412.93,482.52 454.19,477.17 488.6,524.46" fill="#e8433b" fill-opacity="0.82" stroke="#08080b" stroke-width="8.8" stroke-linejoin="round"/><polygon points="412.93,482.52 488.6,524.46 412.25,533.25" fill="#e3a94e" fill-opacity="0.82" stroke="#08080b" stroke-width="8.8" stroke-linejoin="round"/><polygon points="454.19,477.17 543.52,485.79 488.6,524.46" fill="#c96338" fill-opacity="0.8" stroke="#08080b" stroke-width="8.8" stroke-linejoin="round"/><polygon points="543.52,485.79 567.79,518.02 488.6,524.46" fill="#e8433b" fill-opacity="0.89" stroke="#08080b" stroke-width="8.8" stroke-linejoin="round"/><polygon points="543.52,485.79 619.36,463 619.36,519.77" fill="#e8433b" fill-opacity="0.79" stroke="#08080b" stroke-width="8.8" stroke-linejoin="round"/><polygon points="543.52,485.79 619.36,519.77 567.79,518.02" fill="#265fa5" fill-opacity="0.88" stroke="#08080b" stroke-width="8.8" stroke-linejoin="round"/><polygon points="180.64,522.6 254.27,541.41 233.98,584.66" fill="#b32c2b" fill-opacity="0.8" stroke="#08080b" stroke-width="8.8" stroke-linejoin="round"/><polygon points="180.64,522.6 233.98,584.66 180.64,584.66" fill="#f8d449" fill-opacity="0.89" stroke="#08080b" stroke-width="8.8" stroke-linejoin="round"/><polygon points="254.27,541.41 306.99,543.81 233.98,584.66" fill="#e3a94e" fill-opacity="0.8" stroke="#08080b" stroke-width="8.8" stroke-linejoin="round"/><polygon points="306.99,543.81 335.13,584.66 233.98,584.66" fill="#f8d449" fill-opacity="0.88" stroke="#08080b" stroke-width="8.8" stroke-linejoin="round"/><polygon points="306.99,543.81 412.25,533.25 335.13,584.66" fill="#e3a94e" fill-opacity="0.91" stroke="#08080b" stroke-width="8.8" stroke-linejoin="round"/><polygon points="412.25,533.25 410.46,584.66 335.13,584.66" fill="#f8d449" fill-opacity="0.87" stroke="#08080b" stroke-width="8.8" stroke-linejoin="round"/><polygon points="412.25,533.25 488.6,524.46 465.76,584.66" fill="#b32c2b" fill-opacity="0.9" stroke="#08080b" stroke-width="8.8" stroke-linejoin="round"/><polygon points="412.25,533.25 465.76,584.66 410.46,584.66" fill="#fafcfd" fill-opacity="0.74" stroke="#08080b" stroke-width="8.8" stroke-linejoin="round"/><polygon points="488.6,524.46 567.79,518.02 465.76,584.66" fill="#b32c2b" fill-opacity="0.73" stroke="#08080b" stroke-width="8.8" stroke-linejoin="round"/><polygon points="567.79,518.02 534.69,584.66 465.76,584.66" fill="#e3a94e" fill-opacity="0.83" stroke="#08080b" stroke-width="8.8" stroke-linejoin="round"/><polygon points="567.79,518.02 619.36,519.77 619.36,584.66" fill="#c96338" fill-opacity="0.72" stroke="#08080b" stroke-width="8.8" stroke-linejoin="round"/><polygon points="567.79,518.02 619.36,584.66 534.69,584.66" fill="#265fa5" fill-opacity="0.9" stroke="#08080b" stroke-width="8.8" stroke-linejoin="round"/></g><path d="M180.64 584.66 L180.64 305.30 A372.92 372.92 0 0 1 400.00 64.00 A372.92 372.92 0 0 1 619.36 305.30 L619.36 584.66 Z" fill="none" stroke="#2c2c34" stroke-width="17.6" stroke-linejoin="round"/><path d="M180.64 584.66 L180.64 305.30 A372.92 372.92 0 0 1 400.00 64.00 A372.92 372.92 0 0 1 619.36 305.30 L619.36 584.66 Z" fill="none" stroke="#fafcfd" stroke-width="3.2" stroke-linejoin="round" opacity="0.85" pathLength="1"/></svg>
