<svg xmlns="http://www.w3.org/2000/svg" viewBox="0 0 800 800" width="800" height="800" role="img"><title>Ateliers Pehouet · Éclats · calligraphie-lettrage-1</title><defs><filter id="glow" x="-50%" y="-50%" width="200%" height="200%"><feGaussianBlur in="SourceAlpha" stdDeviation="11.2" result="b"/><feFlood flood-color="#e8433b" result="c"/><feComposite in="c" in2="b" operator="in" result="g"/><feMerge><feMergeNode in="g"/><feMergeNode in="g"/><feMergeNode in="SourceGraphic"/></feMerge></filter><filter id="soft" x="-50%" y="-50%" width="200%" height="200%"><feGaussianBlur in="SourceAlpha" stdDeviation="3.2" result="b"/><feFlood flood-color="#fafcfd" result="c"/><feComposite in="c" in2="b" operator="in" result="g"/><feMerge><feMergeNode in="g"/><feMergeNode in="g"/><feMergeNode in="SourceGraphic"/></feMerge></filter><linearGradient id="tg" x1="0" y1="0" x2="1" y2="0"><stop offset="0%" stop-color="#f8d449"/><stop offset="25%" stop-color="#e3a94e"/><stop offset="50%" stop-color="#c96338"/><stop offset="75%" stop-color="#e8433b"/><stop offset="100%" stop-color="#b32c2b"/></linearGradient></defs><rect x="0" y="0" width="800" height="800" fill="#000000"/><polygon points="324.59,480.44 281.43,656.08 268.83,652.5" fill="#c96338" opacity="0.66"/><polygon points="400.59,374.21 577.64,229.45 587.73,242.76" fill="#fafcfd" opacity="0.51"/><polygon points="241.21,426.79 -121.55,468.18 -123.44,445.22" fill="#f8d449" opacity="0.91"/><polygon points="258.36,345.92 -95.3,72.11 -63.35,35.2" fill="#f8d449" opacity="0.54"/><polygon points="381.1,495.02 624.15,945.74 601.91,957.05" fill="#c96338" opacity="0.49"/><polygon points="247.42,383.72 39.52,312.59 42.83,303.55" fill="#fafcfd" opacity="0.51"/><polygon points="221.28,393.31 -195.98,332.15 -185.71,282.84" fill="#fafcfd" opacity="0.77"/><polygon points="260.43,388.01 0.82,303.56 8.86,281.97" fill="#fafcfd" opacity="0.81"/><polygon points="406.4,505.61 589.06,733.46 569.9,747.58" fill="#e3a94e" opacity="0.9"/><polygon points="397.66,485.74 698.78,821.08 669.46,845.26" fill="#f8d449" opacity="0.49"/><polygon points="404.27,521.15 609.85,822.74 575.75,843.35" fill="#4f8edc" opacity="0.79"/><polygon points="251.09,448.79 -83.24,580.99 -95.82,543.13" fill="#4f8edc" opacity="0.84"/><polygon points="457.12,415.84 677.06,399.18 677.6,422.33" fill="#e8433b" opacity="0.52"/><polygon points="399.69,328.01 604.82,-13.14 621.36,-2.64" fill="#f8d449" opacity="0.7"/><polygon points="341.89,352.69 317.6,-69.72 362.08,-69.93" fill="#e8433b" opacity="0.71"/><polygon points="377.91,487.57 616.86,929.32 600.03,938.01" fill="#fafcfd" opacity="0.88"/><polygon points="301.94,373.5 168.98,241.85 185.73,226.85" fill="#e3a94e" opacity="0.67"/><polygon points="413.89,499.13 705.13,805.37 683.87,824.27" fill="#e8433b" opacity="0.88"/><polygon points="343.19,359.56 336.75,-80.93 364.2,-80.47" fill="#4f8edc" opacity="0.76"/><line x1="-239.92" y1="468.19" x2="795.07" y2="49.35" stroke="#fafcfd" stroke-width="4.08" stroke-linecap="round" opacity="0.84" pathLength="1"/><line x1="-152.36" y1="390.02" x2="643.48" y2="25.23" stroke="#fafcfd" stroke-width="2.65" stroke-linecap="round" opacity="0.89" pathLength="1"/><line x1="-147.64" y1="676.57" x2="864.68" y2="235.23" stroke="#fafcfd" stroke-width="1.5" stroke-linecap="round" opacity="0.55" pathLength="1"/><line x1="122.73" y1="766.01" x2="734.05" y2="542.6" stroke="#fafcfd" stroke-width="3.88" stroke-linecap="round" opacity="0.94" pathLength="1" filter="url(#soft)"/><line x1="-242.56" y1="410.67" x2="828.96" y2="94.32" stroke="#e8433b" stroke-width="2.87" stroke-linecap="round" opacity="0.65" pathLength="1"/><line x1="-18.16" y1="509.13" x2="193.99" y2="77.73" stroke="#fafcfd" stroke-width="1.81" stroke-linecap="round" opacity="0.9" pathLength="1"/><line x1="118.9" y1="915.09" x2="855.26" y2="600.87" stroke="#f8d449" stroke-width="1.84" stroke-linecap="round" opacity="0.54" pathLength="1" filter="url(#soft)"/><line x1="-55.14" y1="705.11" x2="832.12" y2="412.93" stroke="#f8d449" stroke-width="1.67" stroke-linecap="round" opacity="0.67" pathLength="1" filter="url(#soft)"/><line x1="69.48" y1="640.83" x2="689.6" y2="362.5" stroke="#fafcfd" stroke-width="2.42" stroke-linecap="round" opacity="0.71" pathLength="1"/><line x1="11.81" y1="860.78" x2="883.61" y2="526.55" stroke="#fafcfd" stroke-width="3.96" stroke-linecap="round" opacity="0.65" pathLength="1"/><line x1="3.55" y1="347.43" x2="548.47" y2="140.65" stroke="#e3a94e" stroke-width="1.05" stroke-linecap="round" opacity="0.47" pathLength="1" filter="url(#soft)"/><line x1="-7.46" y1="634.05" x2="752.98" y2="416.71" stroke="#fafcfd" stroke-width="3.89" stroke-linecap="round" opacity="0.38" pathLength="1" filter="url(#soft)"/><line x1="162.67" y1="601.78" x2="351.21" y2="162.07" stroke="#fafcfd" stroke-width="1.46" stroke-linecap="round" opacity="0.45" pathLength="1" filter="url(#soft)"/><line x1="-134.59" y1="773" x2="934.14" y2="469.8" stroke="#f8d449" stroke-width="3.82" stroke-linecap="round" opacity="0.68" pathLength="1"/><line x1="77.74" y1="623.43" x2="676.15" y2="397.91" stroke="#fafcfd" stroke-width="3.76" stroke-linecap="round" opacity="0.61" pathLength="1"/><line x1="-220.2" y1="257.18" x2="675.06" y2="-62.69" stroke="#fafcfd" stroke-width="4.02" stroke-linecap="round" opacity="0.76" pathLength="1"/><line x1="-267.41" y1="349.68" x2="810.12" y2="21.71" stroke="#fafcfd" stroke-width="4.3" stroke-linecap="round" opacity="0.65" pathLength="1"/><polygon points="330.34,370.5 409.48,452.77 298.67,480.17" fill="url(#tg)" filter="url(#glow)"/><polygon points="330.34,370.5 409.48,452.77 298.67,480.17" fill="none" stroke="#fafcfd" stroke-width="3.2" stroke-linejoin="round"/></svg>
