<svg xmlns="http://www.w3.org/2000/svg" viewBox="0 0 800 800" width="800" height="800" role="img"><title>Ateliers Pehouet · Soleil · ceramique-poterie-3</title><defs><linearGradient id="tg" x1="0" y1="0" x2="0" y2="1"><stop offset="0%" stop-color="#f8d449"/><stop offset="25%" stop-color="#e3a94e"/><stop offset="50%" stop-color="#c96338"/><stop offset="75%" stop-color="#e8433b"/><stop offset="100%" stop-color="#b32c2b"/></linearGradient><filter id="glow" x="-50%" y="-50%" width="200%" height="200%"><feGaussianBlur in="SourceAlpha" stdDeviation="12.8" result="b"/><feFlood flood-color="#e8433b" result="c"/><feComposite in="c" in2="b" operator="in" result="g"/><feMerge><feMergeNode in="g"/><feMergeNode in="g"/><feMergeNode in="SourceGraphic"/></feMerge></filter></defs><rect x="0" y="0" width="800" height="800" fill="#000000"/><g><polygon points="341.72,262.2 1646.72,-112.22 1691.91,120.08" fill="#e3a94e"/><polygon points="341.72,262.2 1691.91,120.08 1696.08,356.7" fill="#000000"/><polygon points="341.72,262.2 1696.08,356.7 1659.09,590.44" fill="#c96338"/><polygon points="341.72,262.2 1659.09,590.44 1582.08,814.21" fill="#08080b"/><polygon points="341.72,262.2 1582.08,814.21 1467.38,1021.21" fill="#b32c2b"/><polygon points="341.72,262.2 1467.38,1021.21 1318.48,1205.15" fill="#000000"/><polygon points="341.72,262.2 1318.48,1205.15 1139.9,1360.44" fill="#fafcfd"/><polygon points="341.72,262.2 1139.9,1360.44 937.06,1482.35" fill="#08080b"/><polygon points="341.72,262.2 937.06,1482.35 716.14,1567.2" fill="#e3a94e"/><polygon points="341.72,262.2 716.14,1567.2 483.84,1612.39" fill="#000000"/><polygon points="341.72,262.2 483.84,1612.39 247.23,1616.55" fill="#c96338"/><polygon points="341.72,262.2 247.23,1616.55 13.48,1579.57" fill="#08080b"/><polygon points="341.72,262.2 13.48,1579.57 -210.29,1502.56" fill="#b32c2b"/><polygon points="341.72,262.2 -210.29,1502.56 -417.29,1387.86" fill="#000000"/><polygon points="341.72,262.2 -417.29,1387.86 -601.23,1238.96" fill="#fafcfd"/><polygon points="341.72,262.2 -601.23,1238.96 -756.51,1060.38" fill="#08080b"/><polygon points="341.72,262.2 -756.51,1060.38 -878.43,857.54" fill="#e3a94e"/><polygon points="341.72,262.2 -878.43,857.54 -963.27,636.62" fill="#000000"/><polygon points="341.72,262.2 -963.27,636.62 -1008.46,404.32" fill="#c96338"/><polygon points="341.72,262.2 -1008.46,404.32 -1012.63,167.71" fill="#08080b"/><polygon points="341.72,262.2 -1012.63,167.71 -975.64,-66.04" fill="#b32c2b"/><polygon points="341.72,262.2 -975.64,-66.04 -898.63,-289.81" fill="#000000"/><polygon points="341.72,262.2 -898.63,-289.81 -783.93,-496.81" fill="#fafcfd"/><polygon points="341.72,262.2 -783.93,-496.81 -635.03,-680.75" fill="#08080b"/><polygon points="341.72,262.2 -635.03,-680.75 -456.45,-836.03" fill="#e3a94e"/><polygon points="341.72,262.2 -456.45,-836.03 -253.62,-957.95" fill="#000000"/><polygon points="341.72,262.2 -253.62,-957.95 -32.7,-1042.79" fill="#c96338"/><polygon points="341.72,262.2 -32.7,-1042.79 199.6,-1087.98" fill="#08080b"/><polygon points="341.72,262.2 199.6,-1087.98 436.22,-1092.15" fill="#b32c2b"/><polygon points="341.72,262.2 436.22,-1092.15 669.96,-1055.17" fill="#000000"/><polygon points="341.72,262.2 669.96,-1055.17 893.74,-978.15" fill="#fafcfd"/><polygon points="341.72,262.2 893.74,-978.15 1100.73,-863.45" fill="#08080b"/><polygon points="341.72,262.2 1100.73,-863.45 1284.67,-714.55" fill="#e3a94e"/><polygon points="341.72,262.2 1284.67,-714.55 1439.96,-535.97" fill="#000000"/><polygon points="341.72,262.2 1439.96,-535.97 1561.87,-333.14" fill="#c96338"/><polygon points="341.72,262.2 1561.87,-333.14 1646.72,-112.22" fill="#08080b"/></g><polygon points="351.89,214.78 386.31,321.37 276.8,297.88" fill="none" stroke="#fafcfd" stroke-width="4.8" stroke-linejoin="round" opacity="0.95" pathLength="1"/><polygon points="367.02,176.02 415.94,377.6 216.91,319.17" fill="none" stroke="#f8d449" stroke-width="4.32" stroke-linejoin="round" opacity="0.85" pathLength="1"/><polygon points="399.51,147.38 416.53,443.75 151.35,310.3" fill="none" stroke="#fafcfd" stroke-width="3.84" stroke-linejoin="round" opacity="0.75" pathLength="1"/><polygon points="455.74,106.24 407.8,549.82 47.61,286.52" fill="none" stroke="#e8433b" stroke-width="3.36" stroke-linejoin="round" opacity="0.65" pathLength="1"/><polygon points="466.39,55.32 455.94,613.03 -21.82,325.13" fill="none" stroke="#fafcfd" stroke-width="2.88" stroke-linejoin="round" opacity="0.55" pathLength="1"/><polygon points="548.2,63.14 365.11,699.68 -94.61,222.85" fill="none" stroke="#f8d449" stroke-width="2.4" stroke-linejoin="round" opacity="0.45" pathLength="1"/><polygon points="350.44,221.56 379.94,312.91 286.07,292.78" fill="url(#tg)" filter="url(#glow)"/></svg>
