<svg xmlns="http://www.w3.org/2000/svg" viewBox="0 0 800 800" width="800" height="800" role="img"><title>Ateliers Pehouet · Soleil · ceramique-poterie-2</title><defs><linearGradient id="tg" x1="0" y1="0" x2="0" y2="1"><stop offset="0%" stop-color="#f8d449"/><stop offset="25%" stop-color="#e3a94e"/><stop offset="50%" stop-color="#c96338"/><stop offset="75%" stop-color="#e8433b"/><stop offset="100%" stop-color="#b32c2b"/></linearGradient><filter id="glow" x="-50%" y="-50%" width="200%" height="200%"><feGaussianBlur in="SourceAlpha" stdDeviation="12.8" result="b"/><feFlood flood-color="#e8433b" result="c"/><feComposite in="c" in2="b" operator="in" result="g"/><feMerge><feMergeNode in="g"/><feMergeNode in="g"/><feMergeNode in="SourceGraphic"/></feMerge></filter></defs><rect x="0" y="0" width="800" height="800" fill="#000000"/><g><polygon points="240.78,509.73 -213.7,1789.04 -469.76,1666.6" fill="#e3a94e"/><polygon points="240.78,509.73 -469.76,1666.6 -694.75,1493.59" fill="#000000"/><polygon points="240.78,509.73 -694.75,1493.59 -878.86,1277.58" fill="#c96338"/><polygon points="240.78,509.73 -878.86,1277.58 -1014.04,1028.01" fill="#08080b"/><polygon points="240.78,509.73 -1014.04,1028.01 -1094.38,755.79" fill="#b32c2b"/><polygon points="240.78,509.73 -1094.38,755.79 -1116.36,472.82" fill="#000000"/><polygon points="240.78,509.73 -1116.36,472.82 -1079.03,191.46" fill="#fafcfd"/><polygon points="240.78,509.73 -1079.03,191.46 -984.01,-75.99" fill="#08080b"/><polygon points="240.78,509.73 -984.01,-75.99 -835.47,-317.84" fill="#e3a94e"/><polygon points="240.78,509.73 -835.47,-317.84 -639.89,-523.52" fill="#000000"/><polygon points="240.78,509.73 -639.89,-523.52 -405.82,-684.05" fill="#c96338"/><polygon points="240.78,509.73 -405.82,-684.05 -143.49,-792.4" fill="#08080b"/><polygon points="240.78,509.73 -143.49,-792.4 135.63,-843.84" fill="#b32c2b"/><polygon points="240.78,509.73 135.63,-843.84 419.35,-836.12" fill="#000000"/><polygon points="240.78,509.73 419.35,-836.12 695.27,-769.58" fill="#fafcfd"/><polygon points="240.78,509.73 695.27,-769.58 951.32,-647.13" fill="#08080b"/><polygon points="240.78,509.73 951.32,-647.13 1176.32,-474.12" fill="#e3a94e"/><polygon points="240.78,509.73 1176.32,-474.12 1360.43,-258.11" fill="#000000"/><polygon points="240.78,509.73 1360.43,-258.11 1495.61,-8.55" fill="#c96338"/><polygon points="240.78,509.73 1495.61,-8.55 1575.94,263.67" fill="#08080b"/><polygon points="240.78,509.73 1575.94,263.67 1597.93,546.64" fill="#b32c2b"/><polygon points="240.78,509.73 1597.93,546.64 1560.6,828" fill="#000000"/><polygon points="240.78,509.73 1560.6,828 1465.58,1095.45" fill="#fafcfd"/><polygon points="240.78,509.73 1465.58,1095.45 1317.04,1337.3" fill="#08080b"/><polygon points="240.78,509.73 1317.04,1337.3 1121.46,1542.98" fill="#e3a94e"/><polygon points="240.78,509.73 1121.46,1542.98 887.39,1703.51" fill="#000000"/><polygon points="240.78,509.73 887.39,1703.51 625.06,1811.86" fill="#c96338"/><polygon points="240.78,509.73 625.06,1811.86 345.93,1863.3" fill="#08080b"/><polygon points="240.78,509.73 345.93,1863.3 62.21,1855.58" fill="#b32c2b"/><polygon points="240.78,509.73 62.21,1855.58 -213.7,1789.04" fill="#000000"/></g><polygon points="242.08,461.25 295.47,559.71 183.51,556.71" fill="none" stroke="#fafcfd" stroke-width="4.8" stroke-linejoin="round" opacity="0.95" pathLength="1"/><polygon points="253.38,413.28 339.56,620.72 116.82,591.64" fill="none" stroke="#f8d449" stroke-width="4.32" stroke-linejoin="round" opacity="0.85" pathLength="1"/><polygon points="284.14,374.82 353.21,694.71 41.64,594.58" fill="none" stroke="#fafcfd" stroke-width="3.84" stroke-linejoin="round" opacity="0.75" pathLength="1"/><polygon points="303.72,325.63 390.43,766.5 -34.73,621.16" fill="none" stroke="#e8433b" stroke-width="3.36" stroke-linejoin="round" opacity="0.65" pathLength="1"/><polygon points="362.66,291.27 371.17,868.92 -133.35,587.47" fill="none" stroke="#fafcfd" stroke-width="2.88" stroke-linejoin="round" opacity="0.55" pathLength="1"/><polygon points="331.5,280.12 415.2,844.09 -115.07,634.6" fill="none" stroke="#f8d449" stroke-width="2.4" stroke-linejoin="round" opacity="0.45" pathLength="1"/><polygon points="241.9,468.18 287.65,552.57 191.69,550" fill="url(#tg)" filter="url(#glow)"/></svg>
