<svg xmlns="http://www.w3.org/2000/svg" viewBox="0 0 800 800" width="800" height="800" role="img"><title>Ateliers Pehouet · Pehouet · cours-ateliers-2</title><defs><linearGradient id="tg" x1="0" y1="0" x2="1" y2="0"><stop offset="0%" stop-color="#f8d449"/><stop offset="25%" stop-color="#e3a94e"/><stop offset="50%" stop-color="#c96338"/><stop offset="75%" stop-color="#e8433b"/><stop offset="100%" stop-color="#b32c2b"/></linearGradient><filter id="glow" x="-50%" y="-50%" width="200%" height="200%"><feGaussianBlur in="SourceAlpha" stdDeviation="9.6" result="b"/><feFlood flood-color="#e8433b" result="c"/><feComposite in="c" in2="b" operator="in" result="g"/><feMerge><feMergeNode in="g"/><feMergeNode in="g"/><feMergeNode in="SourceGraphic"/></feMerge></filter><clipPath id="a"><polygon points="427.49,165.1 753.93,730.52 101.05,730.52"/></clipPath></defs><rect x="0" y="0" width="800" height="800" fill="#000000"/><polygon points="462.9,68.94 803.44,839.39 -34.06,749.08" fill="none" stroke="url(#tg)" stroke-width="4.8" opacity="0.55" filter="url(#glow)" stroke-linejoin="round" pathLength="1"/><polygon points="437.74,218 766.32,705.13 180.15,746.12" fill="none" stroke="#fafcfd" stroke-width="2" opacity="0.35"/><g clip-path="url(#a)"><rect x="22.7" y="86.77" width="593.47" height="659.1" fill="#f8d449" stroke="#fafcfd" stroke-width="5.2"/><rect x="616.17" y="86.77" width="87.84" height="659.1" fill="#b32c2b" stroke="#fafcfd" stroke-width="5.2"/><rect x="745.04" y="86.77" width="87.23" height="489.34" fill="#265fa5" stroke="#fafcfd" stroke-width="5.2"/><rect x="64.94" y="745.87" width="639.07" height="62.99" fill="#265fa5" stroke="#fafcfd" stroke-width="5.2"/><rect x="704.01" y="219.74" width="41.03" height="589.11" fill="#fafcfd" stroke="#fafcfd" stroke-width="5.2"/><rect x="745.04" y="576.11" width="87.23" height="232.75" fill="#b32c2b" stroke="#fafcfd" stroke-width="5.2"/><rect x="704.01" y="86.77" width="41.03" height="132.97" fill="#b32c2b" stroke="#fafcfd" stroke-width="5.2"/><rect x="22.7" y="745.87" width="42.24" height="62.99" fill="#f8d449" stroke="#fafcfd" stroke-width="5.2"/><rect x="166.33" y="600.47" width="260.58" height="113.08" fill="#000000" stroke="#fafcfd" stroke-width="5.2"/></g><polygon points="427.49,165.1 753.93,730.52 101.05,730.52" fill="none" stroke="#fafcfd" stroke-width="8.8" stroke-linejoin="round" filter="url(#glow)" pathLength="1"/><line x1="343.38" y1="677.8" x2="931.53" y2="434.87" stroke="#fafcfd" stroke-width="3.33" stroke-linecap="round" opacity="0.56" pathLength="1"/><line x1="308.09" y1="641.79" x2="658.02" y2="530.31" stroke="#fafcfd" stroke-width="2.84" stroke-linecap="round" opacity="0.64" pathLength="1"/><line x1="218.92" y1="723.55" x2="920.89" y2="459.22" stroke="#fafcfd" stroke-width="2.28" stroke-linecap="round" opacity="0.72" pathLength="1"/><line x1="459.68" y1="709.86" x2="591.35" y2="465.97" stroke="#fafcfd" stroke-width="2.76" stroke-linecap="round" opacity="0.77" pathLength="1"/><line x1="581.16" y1="657.58" x2="657.87" y2="471.71" stroke="#fafcfd" stroke-width="2.69" stroke-linecap="round" opacity="0.83" pathLength="1"/><line x1="526.15" y1="718.21" x2="714.43" y2="414.19" stroke="#fafcfd" stroke-width="2.71" stroke-linecap="round" opacity="0.84" pathLength="1"/></svg>
