<svg xmlns="http://www.w3.org/2000/svg" viewBox="0 0 800 800" width="800" height="800" role="img"><title>Ateliers Pehouet · Soleil · enseignes-signaletique-3</title><defs><linearGradient id="tg" x1="0" y1="0" x2="0" y2="1"><stop offset="0%" stop-color="#f8d449"/><stop offset="25%" stop-color="#e3a94e"/><stop offset="50%" stop-color="#c96338"/><stop offset="75%" stop-color="#e8433b"/><stop offset="100%" stop-color="#b32c2b"/></linearGradient><filter id="glow" x="-50%" y="-50%" width="200%" height="200%"><feGaussianBlur in="SourceAlpha" stdDeviation="12.8" result="b"/><feFlood flood-color="#e8433b" result="c"/><feComposite in="c" in2="b" operator="in" result="g"/><feMerge><feMergeNode in="g"/><feMergeNode in="g"/><feMergeNode in="SourceGraphic"/></feMerge></filter></defs><rect x="0" y="0" width="800" height="800" fill="#000000"/><g><polygon points="305.41,434.37 -119.56,-855.04 228.64,-921.1" fill="#e3a94e"/><polygon points="305.41,434.37 228.64,-921.1 582.08,-894.78" fill="#000000"/><polygon points="305.41,434.37 582.08,-894.78 916.67,-777.88" fill="#c96338"/><polygon points="305.41,434.37 916.67,-777.88 1209.59,-578.37" fill="#08080b"/><polygon points="305.41,434.37 1209.59,-578.37 1440.9,-309.84" fill="#b32c2b"/><polygon points="305.41,434.37 1440.9,-309.84 1594.83,9.4" fill="#000000"/><polygon points="305.41,434.37 1594.83,9.4 1660.88,357.61" fill="#fafcfd"/><polygon points="305.41,434.37 1660.88,357.61 1634.57,711.05" fill="#08080b"/><polygon points="305.41,434.37 1634.57,711.05 1517.67,1045.63" fill="#e3a94e"/><polygon points="305.41,434.37 1517.67,1045.63 1318.16,1338.56" fill="#000000"/><polygon points="305.41,434.37 1318.16,1338.56 1049.63,1569.86" fill="#c96338"/><polygon points="305.41,434.37 1049.63,1569.86 730.39,1723.79" fill="#08080b"/><polygon points="305.41,434.37 730.39,1723.79 382.18,1789.85" fill="#b32c2b"/><polygon points="305.41,434.37 382.18,1789.85 28.74,1763.53" fill="#000000"/><polygon points="305.41,434.37 28.74,1763.53 -305.84,1646.63" fill="#fafcfd"/><polygon points="305.41,434.37 -305.84,1646.63 -598.77,1447.12" fill="#08080b"/><polygon points="305.41,434.37 -598.77,1447.12 -830.08,1178.59" fill="#e3a94e"/><polygon points="305.41,434.37 -830.08,1178.59 -984.01,859.35" fill="#000000"/><polygon points="305.41,434.37 -984.01,859.35 -1050.06,511.14" fill="#c96338"/><polygon points="305.41,434.37 -1050.06,511.14 -1023.74,157.7" fill="#08080b"/><polygon points="305.41,434.37 -1023.74,157.7 -906.85,-176.88" fill="#b32c2b"/><polygon points="305.41,434.37 -906.85,-176.88 -707.34,-469.81" fill="#000000"/><polygon points="305.41,434.37 -707.34,-469.81 -438.81,-701.12" fill="#fafcfd"/><polygon points="305.41,434.37 -438.81,-701.12 -119.56,-855.04" fill="#08080b"/></g><polygon points="308.81,386 357.87,486.68 246.15,478.83" fill="none" stroke="#fafcfd" stroke-width="4.8" stroke-linejoin="round" opacity="0.95" pathLength="1"/><polygon points="322.28,337.29 400.64,550.93 176.44,511.98" fill="none" stroke="#f8d449" stroke-width="4.32" stroke-linejoin="round" opacity="0.85" pathLength="1"/><polygon points="347.68,295.47 423.54,622.08 102.76,524.47" fill="none" stroke="#fafcfd" stroke-width="3.84" stroke-linejoin="round" opacity="0.75" pathLength="1"/><polygon points="382.94,261.47 427.54,696.8 28.23,517.76" fill="none" stroke="#e8433b" stroke-width="3.36" stroke-linejoin="round" opacity="0.65" pathLength="1"/><polygon points="427.85,273.5 368.74,736.63 -2.79,453.87" fill="none" stroke="#fafcfd" stroke-width="2.88" stroke-linejoin="round" opacity="0.55" pathLength="1"/><polygon points="489.19,229.74 357.92,851.22 -114.66,426.8" fill="none" stroke="#f8d449" stroke-width="2.4" stroke-linejoin="round" opacity="0.45" pathLength="1"/><polygon points="308.33,392.91 350.38,479.21 254.61,472.48" fill="url(#tg)" filter="url(#glow)"/></svg>
