<svg xmlns="http://www.w3.org/2000/svg" viewBox="0 0 800 800" width="800" height="800" role="img"><title>Ateliers Pehouet · Mondrian · restauration-encadrement-2</title><defs><linearGradient id="tg" x1="0" y1="0" x2="1" y2="0"><stop offset="0%" stop-color="#f8d449"/><stop offset="25%" stop-color="#e3a94e"/><stop offset="50%" stop-color="#c96338"/><stop offset="75%" stop-color="#e8433b"/><stop offset="100%" stop-color="#b32c2b"/></linearGradient></defs><rect x="0" y="0" width="800" height="800" fill="#000000"/><g><polygon points="0,0 196.8,267.95 0,267.95" fill="#000000"/><polygon points="0,0 196.8,0 196.8,267.95" fill="#b32c2b"/></g><rect x="0" y="0" width="196.8" height="267.95" fill="none" stroke="#fafcfd" stroke-width="8.66"/><rect x="196.8" y="0" width="260.54" height="267.95" fill="#fafcfd" stroke="#fafcfd" stroke-width="8.66"/><rect x="457.33" y="0" width="123.61" height="267.95" fill="#265fa5" stroke="#fafcfd" stroke-width="8.66"/><rect x="580.94" y="0" width="219.06" height="267.95" fill="#000000" stroke="#fafcfd" stroke-width="8.66"/><rect x="0" y="267.95" width="64.09" height="61.99" fill="#f8d449" stroke="#fafcfd" stroke-width="8.66"/><rect x="0" y="329.93" width="64.09" height="470.07" fill="#f8d449" stroke="#fafcfd" stroke-width="8.66"/><rect x="64.09" y="267.95" width="69.55" height="532.05" fill="#f8d449" stroke="#fafcfd" stroke-width="8.66"/><rect x="133.64" y="267.95" width="71.39" height="532.05" fill="#1d1d23" stroke="#fafcfd" stroke-width="8.66"/><rect x="205.02" y="267.95" width="480.97" height="299.19" fill="#08080b" stroke="#fafcfd" stroke-width="8.66"/><rect x="205.02" y="567.14" width="480.97" height="232.86" fill="#265fa5" stroke="#fafcfd" stroke-width="8.66"/><rect x="685.99" y="267.95" width="114.01" height="405.76" fill="#265fa5" stroke="#fafcfd" stroke-width="8.66"/><rect x="685.99" y="673.7" width="114.01" height="126.3" fill="#1d1d23" stroke="#fafcfd" stroke-width="8.66"/><rect x="0" y="0" width="800" height="800" fill="none" stroke="#fafcfd" stroke-width="17.32"/></svg>
